<svg width="24" height="24" viewBox="0 0 24 24" fill="none" xmlns="http://www.w3.org/2000/svg">
  <path d="M12 2C12.5 2 13 2.2 13.4 2.6C13.8 3 14 3.5 14 4C14 4.5 13.8 5 13.4 5.4C13 5.8 12.5 6 12 6C11.5 6 11 5.8 10.6 5.4C10.2 5 10 4.5 10 4C10 3.5 10.2 3 10.6 2.6C11 2.2 11.5 2 12 2Z" fill="currentColor"/>
  <path d="M12 6C8.5 6 6 8.5 6 12C6 15.5 8.5 18 12 18C15.5 18 18 15.5 18 12C18 8.5 15.5 6 12 6Z" fill="currentColor"/>
  <path d="M12 8C9.5 8 8 9.5 8 12C8 14.5 9.5 16 12 16C14.5 16 16 14.5 16 12C16 9.5 14.5 8 12 8Z" fill="white"/>
  <circle cx="12" cy="12" r="1.5" fill="currentColor"/>
  <path d="M12 18C12.5 18 13 17.8 13.4 17.4C13.8 17 14 16.5 14 16C14 15.5 13.8 15 13.4 14.6C13 14.2 12.5 14 12 14C11.5 14 11 14.2 10.6 14.6C10.2 15 10 15.5 10 16C10 16.5 10.2 17 10.6 17.4C11 17.8 11.5 18 12 18Z" fill="currentColor"/>
</svg>
