<svg width="24" height="24" viewBox="0 0 24 24" fill="none" xmlns="http://www.w3.org/2000/svg">
  <path d="M9.5 2C7.83 2 6.5 3.33 6.5 5C6.5 5.84 6.84 6.58 7.4 7.1C6.86 7.62 6.5 8.36 6.5 9.2C6.5 10.87 7.83 12.2 9.5 12.2H14.5C16.17 12.2 17.5 10.87 17.5 9.2C17.5 8.36 17.14 7.62 16.6 7.1C17.16 6.58 17.5 5.84 17.5 5C17.5 3.33 16.17 2 14.5 2C13.5 2 12.66 2.5 12.22 3.24C11.78 2.5 10.94 2 9.5 2Z" fill="currentColor"/>
  <path d="M9.5 13.7C7.83 13.7 6.5 15.03 6.5 16.7C6.5 18.37 7.83 19.7 9.5 19.7H14.5C16.17 19.7 17.5 18.37 17.5 16.7C17.5 15.03 16.17 13.7 14.5 13.7C13.5 13.7 12.66 14.2 12.22 14.94C11.78 14.2 10.94 13.7 9.5 13.7Z" fill="currentColor"/>
  <circle cx="10" cy="6" r="1" fill="white"/>
  <circle cx="14" cy="6" r="1" fill="white"/>
  <circle cx="12" cy="18" r="1" fill="white"/>
</svg>
