<svg width="24" height="24" viewBox="0 0 24 24" fill="none" xmlns="http://www.w3.org/2000/svg">
  <path d="M6.5 5C6.5 4.45 6.95 4 7.5 4H9.5C10.05 4 10.5 4.45 10.5 5V7H13.5V5C13.5 4.45 13.95 4 14.5 4H16.5C17.05 4 17.5 4.45 17.5 5V7.5C17.5 8.05 17.05 8.5 16.5 8.5H14.5C13.95 8.5 13.5 8.05 13.5 7.5V7H10.5V7.5C10.5 8.05 10.05 8.5 9.5 8.5H7.5C6.95 8.5 6.5 8.05 6.5 7.5V5Z" fill="currentColor"/>
  <path d="M6.5 16.5C6.5 15.95 6.95 15.5 7.5 15.5H9.5C10.05 15.5 10.5 15.95 10.5 16.5V17H13.5V16.5C13.5 15.95 13.95 15.5 14.5 15.5H16.5C17.05 15.5 17.5 15.95 17.5 16.5V19C17.5 19.55 17.05 20 16.5 20H14.5C13.95 20 13.5 19.55 13.5 19V18H10.5V19C10.5 19.55 10.05 20 9.5 20H7.5C6.95 20 6.5 19.55 6.5 19V16.5Z" fill="currentColor"/>
  <rect x="10.5" y="8" width="3" height="7" fill="currentColor"/>
  <circle cx="12" cy="11.5" r="1" fill="white"/>
</svg>
