<svg width="24" height="24" viewBox="0 0 24 24" fill="none" xmlns="http://www.w3.org/2000/svg">
  <path d="M12 21.35L10.55 20.03C5.4 15.36 2 12.27 2 8.5C2 5.41 4.42 3 7.5 3C9.24 3 10.91 3.81 12 5.08C13.09 3.81 14.76 3 16.5 3C19.58 3 22 5.41 22 8.5C22 12.27 18.6 15.36 13.45 20.03L12 21.35Z" fill="currentColor"/>
  <path d="M12 18.35L10.55 17.03C6.4 13.36 4 11.27 4 8.5C4 6.5 5.5 5 7.5 5C8.74 5 9.91 5.81 10.5 7.08C11.09 5.81 12.26 5 13.5 5C15.5 5 17 6.5 17 8.5C17 11.27 14.6 13.36 10.45 17.03L12 18.35Z" fill="white"/>
  <circle cx="12" cy="8.5" r="2" fill="currentColor"/>
</svg>
