<svg width="128" height="128" viewBox="0 0 128 128" fill="none" xmlns="http://www.w3.org/2000/svg">
  <defs>
    <linearGradient id="eco360-gradient" x1="20" y1="16" x2="116" y2="112" gradientUnits="userSpaceOnUse">
      <stop offset="0" stop-color="#34D399"/>
      <stop offset="0.45" stop-color="#0EA5E9"/>
      <stop offset="1" stop-color="#2563EB"/>
    </linearGradient>
    <linearGradient id="eco360-light" x1="36" y1="36" x2="100" y2="92" gradientUnits="userSpaceOnUse">
      <stop offset="0" stop-color="#ECFDF5" stop-opacity="0.9"/>
      <stop offset="1" stop-color="#E0F2FE" stop-opacity="0.5"/>
    </linearGradient>
  </defs>
  <circle cx="64" cy="64" r="58" fill="url(#eco360-gradient)"/>
  <circle cx="64" cy="64" r="40" fill="url(#eco360-light)"/>
  <path d="M44 72C44 79.732 50.268 86 58 86H70C77.732 86 84 79.732 84 72C84 64.268 77.732 58 70 58H64.5C59.2533 58 55 53.7467 55 48.5C55 43.2533 59.2533 39 64.5 39H84" stroke="white" stroke-width="8" stroke-linecap="round" stroke-linejoin="round"/>
  <path d="M84 39C84 46.732 77.732 53 70 53H58C50.268 53 44 59.268 44 67C44 74.732 50.268 81 58 81H63.5C68.7467 81 73 85.2533 73 90.5C73 95.7467 68.7467 100 63.5 100H44" stroke="white" stroke-width="8" stroke-linecap="round" stroke-linejoin="round" opacity="0.7"/>
  <circle cx="95" cy="37" r="10" fill="#ECFDF5" stroke="#0EA5E9" stroke-width="4"/>
  <circle cx="37" cy="91" r="7" fill="#ECFEFF" stroke="#34D399" stroke-width="3"/>
</svg>

