<svg width="24" height="24" viewBox="0 0 24 24" fill="none" xmlns="http://www.w3.org/2000/svg">
  <path d="M9 2C8.45 2 8 2.45 8 3V4H6C5.45 4 5 4.45 5 5V7C5 7.55 5.45 8 6 8H8V9C8 10.66 9.34 12 11 12S14 10.66 14 9V8H16C16.55 8 17 7.55 17 7V5C17 4.45 16.55 4 16 4H14V3C14 2.45 13.55 2 13 2H9Z" fill="currentColor"/>
  <path d="M11 12C12.1 12 13 11.1 13 10V9H9V10C9 11.1 9.9 12 11 12Z" fill="white"/>
  <circle cx="18" cy="14" r="3" fill="currentColor"/>
  <circle cx="18" cy="14" r="1.5" fill="white"/>
  <path d="M18 17V19C18 19.55 17.55 20 17 20H15C14.45 20 14 19.55 14 19V17" fill="currentColor"/>
  <path d="M15 17H21V19C21 19.55 20.55 20 20 20H16C15.45 20 15 19.55 15 19V17Z" fill="currentColor"/>
</svg>
